<svg width="327" height="201" viewBox="0 0 327 201" fill="none" xmlns="http://www.w3.org/2000/svg">
<path d="M284.339 147.15C236.718 175.205 154.899 177.284 101.564 151.426C48.2303 125.567 44.1575 81.843 91.7781 53.7881C139.399 25.7332 221.218 23.6538 274.552 49.5126C327.886 75.3714 331.959 119.095 284.339 147.15Z" fill="#1B1B1B" fill-opacity="0.5" stroke="white" stroke-width="6"/>
<path d="M169.812 71.5817C164.521 69.0164 159.406 67.7345 154.466 67.736C149.586 67.702 144.945 68.9819 140.542 71.5757L136.652 73.8675L163.863 87.0603L152.102 93.989L124.892 80.7962L101.822 94.387L86.5164 86.9661L125.146 64.208C133.288 59.4112 142.266 56.9631 152.081 56.8635C161.958 56.7944 171.684 59.0808 181.258 63.7227C185.037 65.5551 188.204 67.5115 190.758 69.592C193.372 71.6369 195.184 73.6813 196.193 75.7251L179.889 80.2567C178.462 77.0386 175.103 74.147 169.812 71.5817ZM171.96 94.9698L198.698 107.934L187.389 114.596L160.651 101.632L171.96 94.9698ZM271.997 127.927C269.465 123.331 265.407 119.193 259.824 115.515L208.167 145.948L192.861 138.527L244.518 108.094C237.126 105.481 228.995 103.709 220.127 102.778L225.878 93.8094C233.006 94.4804 239.879 95.7076 246.497 97.4912C253.115 99.2748 259.226 101.526 264.832 104.244C270.501 106.992 275.318 110.04 279.282 113.387C283.309 116.764 286.262 120.301 288.14 123.997L271.997 127.927Z" fill="white"/>
</svg>
