<svg width="259" height="126" viewBox="0 0 259 126" fill="none" xmlns="http://www.w3.org/2000/svg">
<path d="M195.289 36.0893C227.19 53.9944 224.109 80.7315 187.703 95.7714C151.298 110.811 95.9487 108.213 64.0468 90.3075C32.145 72.4023 35.226 45.6652 71.6319 30.6254C108.038 15.5855 163.387 18.1841 195.289 36.0893Z" fill="#1B1B1B" fill-opacity="0.5" stroke="white" stroke-width="6"/>
<path d="M102.374 53.2725L146.325 77.9401L135.544 82.3937L117.525 72.2799L96.3632 81.022L114.383 91.1358L103.603 95.5893L59.652 70.9217L70.4323 66.4681L87.7614 76.1942L108.923 67.4521L91.5936 57.726L102.374 53.2725ZM157.115 30.658L201.066 55.3256L190.285 59.7792L172.266 49.6654L151.104 58.4075L169.124 68.5213L158.344 72.9748L114.393 48.3071L125.173 43.8536L142.503 53.5797L163.664 44.8376L146.335 35.1115L157.115 30.658Z" fill="white"/>
</svg>
