<svg width="280" height="135" viewBox="0 0 280 135" fill="none" xmlns="http://www.w3.org/2000/svg">
<path d="M274.036 68.4908C273.925 83.8186 260.465 98.9683 235.6 110.468C211.086 121.805 176.968 128.802 139.097 128.527C101.226 128.253 67.2124 120.761 42.8662 109.069C18.1706 97.2097 4.93193 81.8662 5.04318 66.5384C5.15443 51.2106 18.6144 36.0608 43.4796 24.561C67.9929 13.2239 102.111 6.22679 139.982 6.50166C177.854 6.77654 211.867 14.2681 236.213 25.9599C260.909 37.8194 274.147 53.163 274.036 68.4908Z" fill="#1B1B1B" fill-opacity="0.5" stroke="white" stroke-width="9"/>
<path d="M136.768 74.5999L127.297 84.3314L127.169 102.031L111.069 101.914L111.577 31.9159L127.677 32.0328L127.44 64.7319L158.676 32.2578L176.676 32.3884L147.45 63.3771L177.868 102.399L158.968 102.262L136.768 74.5999Z" fill="white"/>
</svg>
