<svg width="299" height="166" viewBox="0 0 299 166" fill="none" xmlns="http://www.w3.org/2000/svg">
<path d="M235.337 62.0083C267.362 94.5636 255.188 130.386 207.489 141.837C159.789 153.289 95.253 135.883 63.2274 103.328C31.2018 70.7727 43.376 34.9505 91.0757 23.4989C138.775 12.0472 203.311 29.4529 235.337 62.0083Z" fill="#1B1B1B" fill-opacity="0.5" stroke="white" stroke-width="6"/>
<path d="M138.431 114.425C133.589 115.587 128.43 116.244 122.953 116.396C117.493 116.491 112.635 116.097 108.378 115.216L105.491 106.233C109.505 107.014 113.741 107.398 118.2 107.385C122.659 107.372 126.697 106.931 130.314 106.063C134.339 105.097 136.894 103.955 137.978 102.637C139.02 101.276 138.825 99.869 137.395 98.4147C136.343 97.3454 134.897 96.6086 133.057 96.2044C131.233 95.7434 129.206 95.5161 126.977 95.5226C124.806 95.5151 121.951 95.6188 118.412 95.8339C112.945 96.1418 108.324 96.2465 104.549 96.1482C100.775 96.0498 96.9242 95.3615 92.9983 94.0833C89.1307 92.7911 85.7242 90.6479 82.7789 87.6538C80.2122 85.0447 78.8606 82.461 78.7241 79.9029C78.5455 77.3021 79.7714 74.9192 82.4018 72.7543C85.0905 70.5755 89.2353 68.8137 94.8361 67.4691C98.745 66.5306 102.903 65.9554 107.31 65.7433C111.717 65.5312 115.952 65.7307 120.015 66.3415L123.403 75.2836C115.429 74.2898 108.613 74.4722 102.954 75.8308C98.9863 76.7833 96.5029 77.9611 95.5033 79.3644C94.562 80.7536 94.8488 82.2181 96.3636 83.7579C97.8783 85.2978 100.094 86.1935 103.01 86.4452C105.942 86.6401 110.012 86.5618 115.22 86.2104C120.687 85.9026 125.307 85.7978 129.082 85.8962C132.857 85.9945 136.657 86.6684 140.483 87.9179C144.367 89.1533 147.781 91.2681 150.727 94.2622C153.251 96.8286 154.574 99.4192 154.694 102.034C154.83 104.592 153.554 106.961 150.866 109.14C148.177 111.318 144.032 113.08 138.431 114.425ZM162.195 51.2977C169.487 49.5469 176.838 49.8708 184.246 52.2694C191.612 54.6252 198.345 58.9041 204.447 65.1062L230.324 91.4116L216.147 94.8152L190.585 68.8306C187.051 65.2377 183.233 62.8231 179.132 61.587C175.047 60.294 170.963 60.1377 166.879 61.1182C162.562 62.1547 160.058 63.9719 159.368 66.5697C158.695 69.1108 160.23 72.2847 163.975 76.0915L188.843 101.37L174.665 104.774L130.485 59.8624L144.224 56.5638L149.589 62.0173C149.67 59.46 150.78 57.2899 152.921 55.507C155.019 53.6813 158.111 52.2782 162.195 51.2977Z" fill="white"/>
</svg>
