<svg width="326" height="150" viewBox="0 0 326 150" fill="none" xmlns="http://www.w3.org/2000/svg">
<path d="M262.11 74.9646C294.546 114.566 276.831 146.911 221.9 146.911C166.968 146.911 96.2671 114.566 63.8305 74.9646C31.3939 35.363 49.1093 3.018 104.04 3.018C158.972 3.018 229.673 35.363 262.11 74.9646Z" fill="#1B1B1B" fill-opacity="0.5" stroke="white" stroke-width="6"/>
<path d="M151.907 105.383C144.06 105.383 135.878 104.078 127.361 101.469C118.87 98.8023 110.886 95.1431 103.409 90.4911C95.959 85.7823 89.8176 80.4779 84.985 74.5777C80.1523 68.6776 77.6275 63.4015 77.4105 58.7495C77.2203 54.0407 79.2098 50.3815 83.379 47.7718C87.575 45.1054 93.633 43.7722 101.553 43.7722C108.226 43.7722 114.983 44.6799 121.823 46.4954C128.737 48.3108 135.421 50.9205 141.876 54.3244L137.127 62.4938C128.11 57.8418 119.752 55.5158 112.052 55.5158C107.285 55.5158 103.706 56.3384 101.313 57.9836C98.8743 59.5721 97.7764 61.813 98.0196 64.7064C98.3361 67.5997 100.005 70.8902 103.025 74.5777C106.045 78.2653 109.767 81.5558 114.19 84.4491C118.687 87.3425 123.479 89.6117 128.566 91.257C133.608 92.8455 138.511 93.6397 143.278 93.6397C150.978 93.6397 155.503 91.2853 156.853 86.5766L174.984 94.746C174.152 98.2067 171.766 100.845 167.827 102.66C163.887 104.476 158.58 105.383 151.907 105.383ZM245.604 104.362L217.163 87.768H216.283H200.773L214.364 104.362H196.544L147.753 44.7934H181.083C187.903 44.7934 194.527 45.6728 200.954 47.4315C207.455 49.1901 213.386 51.6864 218.748 54.9201C224.11 58.1538 228.603 61.9832 232.227 66.4083C235.852 70.8334 237.595 74.6628 237.457 77.8966C237.346 81.0736 235.457 83.513 231.792 85.215L264.744 104.362H245.604ZM214.187 66.4083C211.446 63.0611 207.961 60.5082 203.734 58.7495C199.461 56.9341 194.647 56.0264 189.294 56.0264H174.774L191.781 76.7903H206.301C211.654 76.7903 214.981 75.8826 216.281 74.0672C217.58 72.2517 216.883 69.6988 214.187 66.4083Z" fill="white"/>
</svg>
