<svg width="330" height="134" viewBox="0 0 330 134" fill="none" xmlns="http://www.w3.org/2000/svg">
<path d="M292.968 76.1765C248.724 106.632 166.407 127.288 109.029 122.058C51.6517 116.828 41.5829 87.751 85.827 57.2953C130.071 26.8396 212.388 6.18388 269.766 11.4139C327.143 16.6439 337.212 45.7208 292.968 76.1765Z" fill="#1B1B1B" fill-opacity="0.5" stroke="white" stroke-width="6"/>
<path d="M130.987 84.8041L133.867 71.2938L132.991 71.2139L117.545 69.806L99.8763 81.9683L82.1298 80.3507L145.556 36.6911L178.748 39.7167C185.54 40.3357 190.483 41.5161 193.576 43.2578C196.743 45.0061 197.955 47.1885 197.214 49.8048C196.473 52.4212 193.747 55.3511 189.036 58.5944C184.324 61.8376 178.859 64.5179 172.641 66.635C166.556 68.7172 160.088 70.1524 153.236 70.9405L150.048 86.5416L130.987 84.8041ZM171.07 56.9568C174.634 54.5035 175.965 52.5059 175.062 50.964C174.22 49.3804 171.133 48.3457 165.802 47.8597L151.342 46.5417L129.233 61.7602L143.693 63.0782C149.025 63.5642 154.044 63.2683 158.753 62.1907C163.461 61.1131 167.566 59.3685 171.07 56.9568ZM227.754 44.1836L262.589 47.3589C270.915 48.1177 276.925 49.7015 280.621 52.1102C284.45 54.484 285.732 57.4731 284.465 61.0774C283.272 64.6885 279.504 68.677 273.161 73.043C266.818 77.4089 259.472 81.0712 251.121 84.0299C242.844 86.9953 234.163 89.0998 225.078 90.3435C216.127 91.5524 207.489 91.7773 199.163 91.0185L164.328 87.8432L227.754 44.1836ZM210.338 82.6433C218.006 83.3422 225.856 82.6922 233.887 80.6933C242.052 78.6594 249.155 75.5634 255.195 71.4054C261.236 67.2473 263.708 63.7528 262.61 60.9217C261.646 58.0557 257.33 56.2733 249.662 55.5743L233.449 54.0965L194.125 81.1654L210.338 82.6433Z" fill="white"/>
</svg>
