<svg width="219" height="142" viewBox="0 0 219 142" fill="none" xmlns="http://www.w3.org/2000/svg">
<path d="M185.957 72.5136C170.117 108.631 123.091 137.304 80.6777 136.194C38.2645 135.083 17.1697 104.626 33.0092 68.5085C48.8486 32.391 95.8751 3.71785 138.288 4.82848C180.701 5.9391 201.796 36.3961 185.957 72.5136Z" fill="#1B1B1B" fill-opacity="0.5" stroke="white" stroke-width="6"/>
<path d="M99.8024 60.0594C96.4864 57.6605 92.5018 56.0666 87.8486 55.2778L71.3369 92.9283L59.6769 92.623L76.1886 54.9725C70.9572 55.5024 65.6569 56.8532 60.288 59.0247L59.8283 50.9425C64.1121 49.1428 68.4813 47.8121 72.9361 46.9506C77.3908 46.0891 81.7534 45.7142 86.024 45.826C90.3425 45.9391 94.305 46.532 97.9115 47.6046C101.566 48.6785 104.682 50.2051 107.26 52.1846L99.8024 60.0594ZM100.614 70.7519L120.983 71.2852L117.369 79.5275L96.9996 78.9941L100.614 70.7519ZM158.91 86.4177L155.093 95.1215L117.018 94.1245L120.054 87.201L146.862 70.8958C149.715 69.1475 151.782 67.6454 153.06 66.3894C154.359 65.0895 155.287 63.8022 155.846 62.5274C156.656 60.6811 156.577 59.2562 155.61 58.2527C154.71 57.2065 152.94 56.6488 150.301 56.5797C148.094 56.5219 145.929 56.8654 143.806 57.6101C141.703 58.3109 139.714 59.4149 137.84 60.9221L131.545 55.6884C134.688 53.0584 138.315 51.0414 142.425 49.6373C146.555 48.1892 150.851 47.5236 155.313 47.6404C159.056 47.7384 162.068 48.3953 164.35 49.6111C166.699 50.7842 168.188 52.4239 168.818 54.5302C169.514 56.5937 169.255 59.0102 168.041 61.7796C166.942 64.2852 165.335 66.6219 163.219 68.7897C161.104 70.9575 157.774 73.4047 153.229 76.1313L137.246 85.8504L158.91 86.4177Z" fill="white"/>
</svg>
