<svg width="186" height="144" viewBox="0 0 186 144" fill="none" xmlns="http://www.w3.org/2000/svg">
<path d="M157.617 60.5273C170.492 91.9821 152.1 122.744 116 128.947C79.9008 135.15 40.3983 114.336 27.5234 82.8815C14.6486 51.4267 33.0402 20.6646 69.1398 14.4615C105.239 8.25849 144.742 29.0726 157.617 60.5273Z" fill="#1B1B1B" fill-opacity="0.5" stroke="white" stroke-width="6"/>
<path d="M80.7689 61.5602C75.5658 59.9818 70.3915 59.278 65.2462 59.449L80.8198 97.4971L69.3243 99.4724L53.7507 61.4243C49.1508 62.9279 45.1712 65.2045 41.8118 68.2542L34.6088 60.8621C37.233 58.3667 40.332 56.2889 43.9057 54.6288C47.4795 52.9686 51.3715 51.7769 55.5818 51.0534C59.8394 50.3218 64.1551 50.1032 68.5289 50.3977C72.95 50.6841 77.2308 51.4938 81.3715 52.8268L80.7689 61.5602ZM90.4947 71.3003L110.576 67.8496L113.986 76.1789L93.904 79.6296L90.4947 71.3003ZM125.934 39.8205L145.026 86.4644L133.53 88.4397L117.984 50.4583L108.05 52.1653L104.504 43.5029L125.934 39.8205Z" fill="white"/>
</svg>
